# xmcd
#
# Track frame offsets:
#	225
#	14232
#	27735
#	44485
#	60707
#	72845
#	88787
#	99795
#	113307
#	130450
#
# Disc length: 1915 seconds
#
# Revision: 1
# Processed by: cddbd v1.4PL0 Copyright (c) Steve Scherf et al.
# Submitted via: audiograbber 1.80.04
#
DISCID=8907780a
DTITLE=Ben E King - Stand By Me
DYEAR=1900
DGENRE=Oldies
TTITLE0=Stand By Me
TTITLE1=Spanish Harlem
TTITLE2=Take Me to The Pilot
TTITLE3=Travellin' Woman
TTITLE4=White Moon
TTITLE5=I Guess It's Goodbye
TTITLE6=I Who Have Nothing
TTITLE7=Love Is
TTITLE8=Into The Mystic
TTITLE9=Poison My Mind
EXTD=
EXTT0=
EXTT1=
EXTT2=
EXTT3=
EXTT4=
EXTT5=
EXTT6=
EXTT7=
EXTT8=
EXTT9=
PLAYORDER=
